<svg id="Ebene_1" data-name="Ebene 1" xmlns="http://www.w3.org/2000/svg" viewBox="0 0 510.24 595.28"><defs><style>.cls-1,.cls-2{fill:none;stroke:#1d1d1b;stroke-miterlimit:10;stroke-width:12px;}.cls-2{stroke-linecap:round;}.cls-3{fill:#1d1d1b;}</style></defs><title>u-bmc_logo</title><g id="bild"><path id="kopf" class="cls-1" d="M196.54,228.9a75.86,75.86,0,1,1,111.83-2.18"/><g id="arm_links"><path class="cls-2" d="M167.9,295.88V286.2a71.13,71.13,0,0,1,45.48-66.13"/><circle class="cls-1" cx="167.75" cy="316.11" r="18.8"/></g><g id="arm_rechts"><path class="cls-2" d="M335.43,295.88V286.2A71.11,71.11,0,0,0,290,220.07"/><circle class="cls-1" cx="335.59" cy="316.11" r="18.8"/></g><g id="arme_mitte"><path class="cls-1" d="M219.35,353.56V277.63a32.21,32.21,0,0,1,32.11-32.11h0a32.21,32.21,0,0,1,32.11,32.11v78"/><circle class="cls-1" cx="219.35" cy="373.41" r="18.8"/><circle class="cls-1" cx="283.57" cy="373.41" r="18.8"/></g><path id="mund" class="cls-2" d="M267.08,194.74a15.62,15.62,0,1,1-31.24,0"/><g id="augen"><path class="cls-2" d="M209.6,171.52a10.6,10.6,0,0,1,21.19,0"/><path class="cls-2" d="M272.13,171.52a10.59,10.59,0,1,1,21.18,0"/></g></g><g id="text"><path class="cls-3" d="M167.52,471.07c0,6.4-1.2,11.1-4.2,15a22.27,22.27,0,0,1-17.4,8.5,21.08,21.08,0,0,1-18-10.1c-2.4-3.6-3.4-7.5-3.4-13v-16.8c0-3.4.1-4.2.9-5.71a6.56,6.56,0,0,1,5.9-3.39,6.76,6.76,0,0,1,5.8,3.39c.8,1.51.8,2.31.8,5.71v18.1a8.2,8.2,0,0,0,8.3,8.5c2.9,0,6.1-1.9,7.1-4.6.8-1.6,1-2.8,1-6.8v-15.2c0-3.4,0-4.2.8-5.71a6.64,6.64,0,0,1,5.8-3.39,6.8,6.8,0,0,1,5.9,3.39c.7,1.51.7,2.31.7,5.71Z"/><path class="cls-3" d="M190.42,461.67c3.1,0,4,0,5.5.8a7.05,7.05,0,0,1,3.4,5.7,6.72,6.72,0,0,1-3.4,5.9c-1.3.8-2.4,1-4.9,1h-6c-3.2,0-4.2-.1-5.6-1a6.26,6.26,0,0,1-3.4-5.7,6.69,6.69,0,0,1,3.4-5.9c1.4-.8,2.2-.8,5.6-.8Z"/><path class="cls-3" d="M221.22,443.16c0,3.7,0,4.1-.1,7.11a19.46,19.46,0,0,1,13.4-4.91c13,0,22.8,10.61,22.8,24.61s-9.9,24.6-23.2,24.6c-5.5,0-9.2-1.4-13.5-5.1-1.2,3.4-3.2,4.9-6.4,4.9-2.4,0-4.5-1-5.4-2.8-.9-1.4-1-2.6-1-5.8V435.86c0-3.3,0-4.1.9-5.5a6.57,6.57,0,0,1,5.9-3.4,6.37,6.37,0,0,1,5.7,3.4c.8,1.4.9,2.1.9,5.5Zm-.4,26.81a11.25,11.25,0,1,0,11.3-11.2A11.14,11.14,0,0,0,220.82,470Z"/><path class="cls-3" d="M264.52,465.47c0-10.8,9.6-20.11,20.6-20.11a21.63,21.63,0,0,1,14.2,5.41,20.95,20.95,0,0,1,35,15.5v19.3c0,3.2-.1,4-.8,5.5a6.77,6.77,0,0,1-5.8,3.3,6.48,6.48,0,0,1-5.7-3.3c-.8-1.5-.9-2.3-.9-5.5V469c0-3.5-.1-4.8-.8-6.3a7.13,7.13,0,0,0-6.8-4.2,6.9,6.9,0,0,0-6.1,3.5c-.9,1.8-1.1,3.5-1.1,7v16.6c0,3.2-.2,4-1,5.5a6.64,6.64,0,0,1-5.8,3.3,7.07,7.07,0,0,1-5.9-3.3c-.7-1.5-.8-2.3-.8-5.5V469a41.36,41.36,0,0,0-.4-5.8,7.6,7.6,0,0,0-7.1-4.8,7.16,7.16,0,0,0-6.8,4.8,17.27,17.27,0,0,0-.6,5.8v16.6c0,3.2,0,4-.8,5.5a6.9,6.9,0,0,1-5.8,3.3,6.69,6.69,0,0,1-5.9-3.3c-.8-1.5-.9-2.3-.9-5.5Z"/><path class="cls-3" d="M380.72,450c3.3,2.51,4.5,4.11,4.5,6.91,0,3.8-3,6.6-7,6.6-1.5,0-2.3-.4-4.1-1.7-2.9-2.3-4.8-3-7.6-3a11.25,11.25,0,1,0-.3,22.5c3.4,0,4-.2,8.7-3.7a5.9,5.9,0,0,1,4-1.5,6.72,6.72,0,0,1,6.8,6.7c0,2.8-1.7,5.1-5.4,7.6a26.67,26.67,0,0,1-14.1,4.2,24.66,24.66,0,1,1-.2-49.31A26.18,26.18,0,0,1,380.72,450Z"/></g></svg>